<?xml version="1.0" encoding="utf-8"?>
<!-- Generator: Adobe Illustrator 16.0.0, SVG Export Plug-In . SVG Version: 6.00 Build 0)  -->
<!DOCTYPE svg PUBLIC "-//W3C//DTD SVG 1.1//EN" "http://www.w3.org/Graphics/SVG/1.1/DTD/svg11.dtd">
<svg version="1.1" id="Layer_1" xmlns="http://www.w3.org/2000/svg" xmlns:xlink="http://www.w3.org/1999/xlink" x="0px" y="0px"
	 width="70px" height="70px" viewBox="0 0 70 70" enable-background="new 0 0 70 70" xml:space="preserve">
<g>
	<path fill="#FFFFFF" d="M47.27,30.62c-2.42,1.99-2.77,5.561-0.777,7.981c1.988,2.419,5.559,2.766,7.979,0.776
		c2.418-1.99,2.768-5.562,0.779-7.978C53.26,28.977,49.688,28.632,47.27,30.62z M53.271,37.916c-1.613,1.329-3.996,1.097-5.32-0.516
		c-1.328-1.613-1.096-3.993,0.518-5.32c1.613-1.329,3.994-1.096,5.32,0.521C55.115,34.211,54.883,36.592,53.271,37.916z"/>
	<path fill="#FFFFFF" d="M19.131,29.329c-3.131,0-5.669,2.539-5.669,5.669c0,3.132,2.538,5.67,5.669,5.67
		c3.13,0,5.671-2.538,5.671-5.67C24.802,31.868,22.262,29.329,19.131,29.329z M19.131,38.779c-2.086,0-3.781-1.691-3.781-3.78
		c0-2.088,1.695-3.78,3.781-3.78c2.089,0,3.781,1.692,3.781,3.78C22.913,37.088,21.221,38.779,19.131,38.779z"/>
	<path fill="#FFFFFF" d="M0,0v70h70V0H0z M58.279,44.01c-3.834,3.155-9.074,3.442-13.152,1.137
		c-2.994-1.287-5.406-2.199-9.289-2.199c-4.168,0-7.756,0.846-11.092,2.279c-1.666,0.916-3.579,1.439-5.615,1.439
		c-6.443,0-11.666-5.223-11.666-11.666c0-6.443,5.223-11.666,11.666-11.666c2.033,0,3.943,0.522,5.607,1.436
		c3.338,1.434,6.929,2.281,11.1,2.281c3.896,0,6.314-0.92,9.324-2.214C50,22.114,56.23,23.155,59.879,27.589
		C63.973,32.567,63.254,39.919,58.279,44.01z"/>
</g>
</svg>
