<?xml version="1.0" encoding="utf-8"?>
<!-- Generator: Adobe Illustrator 16.0.0, SVG Export Plug-In . SVG Version: 6.00 Build 0)  -->
<!DOCTYPE svg PUBLIC "-//W3C//DTD SVG 1.1//EN" "http://www.w3.org/Graphics/SVG/1.1/DTD/svg11.dtd">
<svg version="1.1" id="Layer_1" xmlns="http://www.w3.org/2000/svg" xmlns:xlink="http://www.w3.org/1999/xlink" x="0px" y="0px"
	 width="70px" height="70px" viewBox="0 0 70 70" enable-background="new 0 0 70 70" xml:space="preserve">
<g>
	<rect fill="none" width="70" height="70"/>
	<path fill="#FFFFFF" d="M36.438,22.766c-7.222,0-13.098,5.877-13.098,13.1c0,7.218,5.876,13.091,13.098,13.091
		c7.221,0,13.094-5.873,13.094-13.091C49.531,28.643,43.658,22.766,36.438,22.766z"/>
	<path fill="#FFFFFF" d="M36.434,16.302c-10.803,0-19.558,8.754-19.558,19.563c0,10.801,8.755,19.551,19.558,19.551
		c10.805,0,19.559-8.75,19.559-19.551C55.992,25.056,47.238,16.302,36.434,16.302z M36.438,51.013
		c-8.357,0-15.156-6.795-15.156-15.147c0-8.356,6.798-15.157,15.156-15.157c8.354,0,15.15,6.801,15.15,15.157
		C51.588,44.218,44.791,51.013,36.438,51.013z"/>
	<path fill="#FFFFFF" d="M61.484,19.454h-0.57c-0.719,0-1.297,0.581-1.297,1.298l-1.781,13.394l1.781,2.048v17.28
		c0,0.717,0.578,1.295,1.297,1.295h0.57c0.719,0,1.295-0.578,1.295-1.295V20.752C62.779,20.035,62.203,19.454,61.484,19.454z"/>
	<path fill="#FFFFFF" d="M15.034,18.915H8.3L7.729,32.09c0,0.802,0.649,1.45,1.453,1.45h0.902v19.934
		c0,0.717,0.581,1.295,1.295,1.295h0.575c0.714,0,1.292-0.578,1.292-1.295V33.54h0.906c0.799,0,1.453-0.648,1.453-1.45
		L15.034,18.915z"/>
</g>
</svg>
