<?xml version="1.0" encoding="utf-8"?>
<!-- Generator: Adobe Illustrator 16.0.0, SVG Export Plug-In . SVG Version: 6.00 Build 0)  -->
<!DOCTYPE svg PUBLIC "-//W3C//DTD SVG 1.1//EN" "http://www.w3.org/Graphics/SVG/1.1/DTD/svg11.dtd">
<svg version="1.1" id="Layer_1" xmlns="http://www.w3.org/2000/svg" xmlns:xlink="http://www.w3.org/1999/xlink" x="0px" y="0px"
	 width="70px" height="70px" viewBox="0 0 70 70" enable-background="new 0 0 70 70" xml:space="preserve">
<g>
	<rect fill="none" width="70" height="70"/>
	<g>
		<path fill="#FFFFFF" d="M35,9.752c-13.945,0-25.248,11.302-25.248,25.251c0,13.944,11.303,25.245,25.248,25.245
			s25.248-11.301,25.248-25.245C60.248,21.054,48.945,9.752,35,9.752z M35.061,31.994c1.697,0,3.096,1.242,3.359,2.869
			c0.01,0.067,0.013,0.136,0.02,0.204c0.011,0.113,0.034,0.223,0.034,0.342c0,1.881-1.528,3.41-3.413,3.41s-3.412-1.529-3.412-3.41
			c0-0.188,0.025-0.367,0.055-0.546c0.151-0.938,0.676-1.753,1.428-2.269C33.68,32.218,34.344,31.994,35.061,31.994z M40.666,34.863
			c-0.04-0.426-0.115-0.852-0.256-1.274c-0.219-0.65-0.559-1.224-0.965-1.73l4.164-13.289l-0.419-0.204l-8.043,11.377
			c-0.632-0.012-1.276,0.058-1.91,0.272c-2.192,0.734-3.632,2.685-3.839,4.849H14.801c0-11.158,9.043-20.197,20.199-20.197
			s20.198,9.039,20.198,20.197H40.666z"/>
	</g>
</g>
</svg>
