<?xml version="1.0" encoding="utf-8"?>
<!-- Generator: Adobe Illustrator 16.0.0, SVG Export Plug-In . SVG Version: 6.00 Build 0)  -->
<!DOCTYPE svg PUBLIC "-//W3C//DTD SVG 1.1//EN" "http://www.w3.org/Graphics/SVG/1.1/DTD/svg11.dtd">
<svg version="1.1" id="Layer_1" xmlns="http://www.w3.org/2000/svg" xmlns:xlink="http://www.w3.org/1999/xlink" x="0px" y="0px"
	 width="70px" height="70px" viewBox="0 0 70 70" enable-background="new 0 0 70 70" xml:space="preserve">
<g>
	<path fill="#FFFFFF" d="M0,0v70h70V0H0z M16.956,57.209H12.44v-7.398h4.516V57.209z M16.956,46.074H12.44v-7.399h4.516V46.074z
		 M16.956,35.067H12.44v-7.401h4.516V35.067z M16.956,23.788H12.44v-7.399h4.516V23.788z M29.236,54.097l-9.362,2.362v-7.398
		l9.362-2.365V54.097z M29.236,43.074l-9.362,2.361v-7.398l9.362-2.361V43.074z M29.236,32.053l-9.362,2.363v-7.401l9.362-2.362
		V32.053z M29.236,21.032l-9.362,2.363v-7.399l9.362-2.362V21.032z M38.939,54.097h-7.857v-7.399h7.857V54.097z M38.939,43.076
		h-7.857v-7.4h7.857V43.076z M38.939,32.055h-7.857v-7.401h7.857V32.055z M38.939,21.033h-7.857v-7.399h7.857V21.033z
		 M50.143,56.459l-9.361-2.362v-7.401l9.361,2.365V56.459z M50.143,45.436l-9.361-2.361v-7.398l9.361,2.361V45.436z M50.143,34.417
		l-9.361-2.363v-7.4l9.361,2.362V34.417z M50.143,23.395l-9.361-2.363v-7.398l9.361,2.362V23.395z M57.669,57.209h-4.516v-7.398
		h4.516V57.209z M57.669,46.074h-4.516v-7.399h4.516V46.074z M57.669,35.067h-4.516v-7.401h4.516V35.067z M57.669,23.788h-4.516
		v-7.399h4.516V23.788z"/>
</g>
</svg>
