<?xml version="1.0" encoding="utf-8"?>
<!-- Generator: Adobe Illustrator 16.0.0, SVG Export Plug-In . SVG Version: 6.00 Build 0)  -->
<!DOCTYPE svg PUBLIC "-//W3C//DTD SVG 1.1//EN" "http://www.w3.org/Graphics/SVG/1.1/DTD/svg11.dtd">
<svg version="1.1" id="Layer_1" xmlns="http://www.w3.org/2000/svg" xmlns:xlink="http://www.w3.org/1999/xlink" x="0px" y="0px"
	 width="70px" height="70px" viewBox="0 0 70 70" enable-background="new 0 0 70 70" xml:space="preserve">
<g>
	<path fill="#FFFFFF" d="M35.812,35.612C34.226,35.834,33,37.181,33,38.831c0,0.229,0.054,0.444,0.098,0.662l12.104,6.739
		c0.316,0.227,0.755,0.156,0.983-0.161l0.105-0.151c0.229-0.315,0.158-0.76-0.157-0.986L35.812,35.612z"/>
	<path fill="#FFFFFF" d="M35.173,19.423c-10.426,0-18.91,8.483-18.91,18.911c0,10.425,8.484,18.907,18.91,18.907
		c10.427,0,18.909-8.482,18.909-18.907C54.082,27.906,45.6,19.423,35.173,19.423z M35.173,55.118
		c-9.256,0-16.788-7.529-16.788-16.784c0-9.256,7.532-16.789,16.788-16.789c9.255,0,16.787,7.533,16.787,16.789
		C51.96,47.589,44.428,55.118,35.173,55.118z"/>
	<path fill="#FFFFFF" d="M0,0v70h70V0H0z M30.149,10.502c0-0.843,0.684-1.526,1.526-1.526h6.993c0.842,0,1.529,0.684,1.529,1.526
		v2.883c0,0.201-0.046,0.396-0.117,0.572c-1.589-0.307-3.227-0.481-4.908-0.481c-1.678,0-3.318,0.175-4.907,0.481
		c-0.073-0.176-0.116-0.371-0.116-0.572V10.502z M35.173,60.642c-12.321,0-22.312-9.985-22.312-22.306
		c0-5.569,2.045-10.657,5.417-14.566c-0.06-0.047-0.116-0.099-0.168-0.158l-2.859-3.395c-0.444-0.512-0.394-1.29,0.12-1.734
		l1.846-1.611c0.509-0.446,1.287-0.394,1.736,0.118l2.857,3.397c0.014,0.016,0.022,0.035,0.036,0.051
		c3.72-2.773,8.331-4.416,13.327-4.416c12.322,0,22.309,9.989,22.309,22.314C57.481,50.656,47.495,60.642,35.173,60.642z"/>
</g>
</svg>
