<?xml version="1.0" encoding="utf-8"?>
<!-- Generator: Adobe Illustrator 16.0.0, SVG Export Plug-In . SVG Version: 6.00 Build 0)  -->
<!DOCTYPE svg PUBLIC "-//W3C//DTD SVG 1.1//EN" "http://www.w3.org/Graphics/SVG/1.1/DTD/svg11.dtd">
<svg version="1.1" id="Layer_1" xmlns="http://www.w3.org/2000/svg" xmlns:xlink="http://www.w3.org/1999/xlink" x="0px" y="0px"
	 width="70px" height="70px" viewBox="0 0 70 70" enable-background="new 0 0 70 70" xml:space="preserve">
<g>
	<path fill="#FFFFFF" d="M43.465,41.783c4.102-1.412,7.799-4.941,9.834-9.663c0.973-2.26,1.485-4.611,1.551-6.907h-6.261
		C47.663,31.9,45.848,37.673,43.465,41.783z"/>
	<path fill="#FFFFFF" d="M14.798,25.213c0.064,2.296,0.577,4.647,1.55,6.907c2.035,4.722,5.729,8.251,9.837,9.663
		c-2.387-4.11-4.199-9.883-5.126-16.57H14.798z"/>
	<path fill="#FFFFFF" d="M0,0v70h70V0H0z M55.502,33.067c-2.746,6.385-8.253,10.854-14.085,11.655
		c-1.615,1.918-3.271,3.15-5.17,3.54v4.11c1.178,2.174,4.402,4.061,8.838,5.078h0.756c0.69,0,1.25,0.561,1.25,1.252
		c0,0.69-0.56,1.249-1.25,1.249H23.806c-0.69,0-1.25-0.559-1.25-1.249c0-0.691,0.56-1.252,1.25-1.252h0.773
		c4.412-1.014,7.609-2.89,8.803-5.047v-4.142c-1.898-0.39-3.537-1.622-5.152-3.54c-5.833-0.801-11.338-5.271-14.088-11.655
		c-1.467-3.404-2.004-7.009-1.638-10.43h0.03h2.377h5.842c-0.202-2.003-0.307-4.089-0.346-6.213
		c0.126-0.667,0.601-1.187,1.245-1.373c0.158-0.045,0.315-0.098,0.487-0.098h4.66h15.965h4.659c0.171,0,0.329,0.053,0.487,0.098
		c0.751,0.216,1.311,0.878,1.311,1.697v0.338c-0.052,1.893-0.148,3.756-0.328,5.55h5.845h2.374h0.03
		C57.51,26.059,56.969,29.664,55.502,33.067z"/>
</g>
</svg>
