<?xml version="1.0" encoding="utf-8"?>
<!-- Generator: Adobe Illustrator 16.0.0, SVG Export Plug-In . SVG Version: 6.00 Build 0)  -->
<!DOCTYPE svg PUBLIC "-//W3C//DTD SVG 1.1//EN" "http://www.w3.org/Graphics/SVG/1.1/DTD/svg11.dtd">
<svg version="1.1" id="Layer_1" xmlns="http://www.w3.org/2000/svg" xmlns:xlink="http://www.w3.org/1999/xlink" x="0px" y="0px"
	 width="70px" height="70px" viewBox="0 0 70 70" enable-background="new 0 0 70 70" xml:space="preserve">
<g>
	<rect x="17.862" y="31.315" fill="#FFFFFF" width="34.239" height="3.085"/>
	<path fill="#FFFFFF" d="M0,0v70h70V0H0z M61.086,52.195h-8.984v-0.066H17.862v0.066H8.876v-21.43c0-1.943,1.575-3.521,3.521-3.521
		h1.945c1.461,0,2.716,0.892,3.247,2.16v-6.438c0-1.943,1.575-3.521,3.521-3.521h27.66c1.945,0,3.521,1.577,3.521,3.521v6.713
		c0.46-1.41,1.771-2.436,3.33-2.436h1.945c1.944,0,3.521,1.578,3.521,3.521V52.195z"/>
</g>
</svg>
