<?xml version="1.0" encoding="utf-8"?>
<!-- Generator: Adobe Illustrator 16.0.0, SVG Export Plug-In . SVG Version: 6.00 Build 0)  -->
<!DOCTYPE svg PUBLIC "-//W3C//DTD SVG 1.1//EN" "http://www.w3.org/Graphics/SVG/1.1/DTD/svg11.dtd">
<svg version="1.1" id="Layer_1" xmlns="http://www.w3.org/2000/svg" xmlns:xlink="http://www.w3.org/1999/xlink" x="0px" y="0px"
	 width="70px" height="70px" viewBox="0 0 70 70" enable-background="new 0 0 70 70" xml:space="preserve">
<g>
	<path fill="#FFFFFF" d="M0,0v70h70V0H0z M58.863,18.522c-0.15,0.311-0.329,0.602-0.527,0.857l-9.723,12.578
		c-1.072,1.181-4.913,5.211-8.17,6.042l-0.695,0.177l-2.608,3.345l11.813,15.14c0.223,0.284,0.322,0.641,0.277,1.002
		c-0.045,0.36-0.227,0.684-0.516,0.907l-0.506,0.398c-0.239,0.188-0.537,0.29-0.841,0.29c-0.424,0-0.815-0.193-1.073-0.525
		L35.001,44.261L23.708,58.733c-0.26,0.332-0.651,0.525-1.076,0.525c-0.303,0-0.601-0.103-0.838-0.29l-0.51-0.398
		c-0.286-0.224-0.469-0.547-0.513-0.907c-0.045-0.361,0.053-0.718,0.277-1.006l11.813-15.137l-2.608-3.344L29.556,38
		c-3.256-0.831-7.097-4.861-8.167-6.042L21.35,31.94l-0.211-0.235l-9.474-12.328c-0.197-0.253-0.376-0.544-0.528-0.858
		c-1.007-2.058-0.417-4.573,1.404-5.977c2.125-1.632,5.18-1.235,6.813,0.886l9.659,12.643c0.632,1.109,3.275,5.967,3.442,9.374
		l-0.056,0.003L35,38.78l2.601-3.333l-0.053-0.003c0.165-3.407,2.81-8.265,3.439-9.374l0.017-0.08l0.16-0.241l9.484-12.321
		c1.631-2.122,4.686-2.521,6.811-0.886C59.279,13.945,59.871,16.461,58.863,18.522z"/>
</g>
</svg>
