<?xml version="1.0" encoding="utf-8"?>
<!-- Generator: Adobe Illustrator 16.0.0, SVG Export Plug-In . SVG Version: 6.00 Build 0)  -->
<!DOCTYPE svg PUBLIC "-//W3C//DTD SVG 1.1//EN" "http://www.w3.org/Graphics/SVG/1.1/DTD/svg11.dtd">
<svg version="1.1" id="Layer_1" xmlns="http://www.w3.org/2000/svg" xmlns:xlink="http://www.w3.org/1999/xlink" x="0px" y="0px"
	 width="70px" height="70px" viewBox="0 0 70 70" enable-background="new 0 0 70 70" xml:space="preserve">
<g>
	<path fill="#FFFFFF" d="M0,0v70h70V0H0z M60.03,52.053c0,0,0.027,2.049-3.269,3.41c0,0-6.441,1.329-11.706-0.199
		c-0.511-0.063-1.035-0.232-1.547-0.672c-1.536-0.53-3.83-1.744-4.109-2.688c-1.023-0.521-2.488-0.543-3.978-2.661
		c-1.848-1.119-5.154-2.772-5.008-3.995c-1.153-1.058-2.1-3.224-1.988-3.881c0.107-0.661,0.135-2.121-1.125-2.216
		c-1.255-0.1-2.047,0.064-2.047,0.064s-1.453,0.279-1.731,0.149c-0.294,0.307-0.444,0.415-1.582-0.259
		c-1.136-0.684-8.506-5.797-8.506-5.797s-2.708-3.81-3.034-5.597c0.082-1.641,0.684-2.166,0.922-2.29
		c0.236-0.123,1.037-0.206,1.037-0.206l2.108-2.094c0,0,4.444-4.902,6.161-5.95c1.895-1.286,2.8-2.034,2.8-2.034
		s3.476-0.509,3.359,1.996c0,0-0.329,4.937,2.972,6.289c3.299,1.363,7.918,1.306,7.918,1.306l1.292-1.576c0,0,1.41-1.338,1.811,1.17
		c0.401,2.502,3.062,11.669,5.519,15.816c1.648,2.775,2.958,4.436,3.889,5.461l2.131,1.498c0.914,0.412,5.869,1.682,5.869,1.682
		S60.268,50.971,60.03,52.053z"/>
</g>
</svg>
