<?xml version="1.0" encoding="utf-8"?>
<!-- Generator: Adobe Illustrator 16.0.0, SVG Export Plug-In . SVG Version: 6.00 Build 0)  -->
<!DOCTYPE svg PUBLIC "-//W3C//DTD SVG 1.1//EN" "http://www.w3.org/Graphics/SVG/1.1/DTD/svg11.dtd">
<svg version="1.1" id="Layer_1" xmlns="http://www.w3.org/2000/svg" xmlns:xlink="http://www.w3.org/1999/xlink" x="0px" y="0px"
	 width="70px" height="70px" viewBox="0 0 70 70" enable-background="new 0 0 70 70" xml:space="preserve">
<g>
	<path fill="#FFFFFF" d="M0,0v70h70V0H0z M62.093,36.527c0,1.394-1.131,2.523-2.523,2.523h-3.116v1.938
		c0,2.229-1.804,4.038-4.033,4.038h-2.935v3.871c0,2.229-1.804,4.036-4.033,4.036h-3.406V39.051h-14.04v13.883H24.6
		c-2.228,0-4.033-1.808-4.033-4.036v-3.871h-2.934c-2.227,0-4.033-1.809-4.033-4.038v-1.938h-3.17c-1.391,0-2.522-1.13-2.522-2.523
		v-1.094c0-1.391,1.131-2.521,2.522-2.521h3.17v-1.924c0-2.228,1.806-4.036,4.033-4.036h2.934v-3.136
		c0-2.226,1.805-4.037,4.033-4.037h3.406v13.133h14.04V19.779h3.406c2.229,0,4.033,1.812,4.033,4.037v3.136h2.935
		c2.229,0,4.033,1.809,4.033,4.036v1.924h3.116c1.393,0,2.523,1.131,2.523,2.521V36.527z"/>
</g>
</svg>
