<?xml version="1.0" encoding="utf-8"?>
<!-- Generator: Adobe Illustrator 16.0.0, SVG Export Plug-In . SVG Version: 6.00 Build 0)  -->
<!DOCTYPE svg PUBLIC "-//W3C//DTD SVG 1.1//EN" "http://www.w3.org/Graphics/SVG/1.1/DTD/svg11.dtd">
<svg version="1.1" id="Layer_1" xmlns="http://www.w3.org/2000/svg" xmlns:xlink="http://www.w3.org/1999/xlink" x="0px" y="0px"
	 width="70px" height="70px" viewBox="0 0 70 70" enable-background="new 0 0 70 70" xml:space="preserve">
<g>
	<path fill="#FFFFFF" d="M0,0v70h70V0H0z M62.108,50.348h-53.2V38.625h0.062c0.749-1.537,8.928-17.902,17.569-17.573
		c8.363,0.32,6.797,6.515,6.797,6.515s-1.079-2.925-4.974-1.558c-2.282,0.8-2.898,3.658-1.333,6.497
		c0.009-0.02,0.014-0.032,0.014-0.032s4.044,5.71,10.601-0.846c3.349-5.003,8.348-10.772,13.513-10.576
		c8.363,0.32,6.799,6.515,6.799,6.515s-1.08-2.925-4.975-1.558c-4.344,1.523-2.666,10.502,8.663,12.616h0.464V50.348z"/>
</g>
</svg>
