<?xml version="1.0" encoding="utf-8"?>
<!-- Generator: Adobe Illustrator 16.0.0, SVG Export Plug-In . SVG Version: 6.00 Build 0)  -->
<!DOCTYPE svg PUBLIC "-//W3C//DTD SVG 1.1//EN" "http://www.w3.org/Graphics/SVG/1.1/DTD/svg11.dtd">
<svg version="1.1" id="Layer_1" xmlns="http://www.w3.org/2000/svg" xmlns:xlink="http://www.w3.org/1999/xlink" x="0px" y="0px"
	 width="70px" height="70px" viewBox="0 0 70 70" enable-background="new 0 0 70 70" xml:space="preserve">
<g>
	<path fill="#FFFFFF" d="M0,0v70h70V0H0z M61.943,42.31c-1.254,0.355-2.031,0.297-2.211,0.417c-0.178,0.119-0.898,0.419-0.898,0.419
		s-0.719,1.434-2.213,1.434c-0.775,0.54-1.555,1.438-2.99,1.317c-1.555,0.477-4.125,0.836-4.904,0.237
		c-1.135,0.182-2.332,1.019-4.781,0.182c-2.154,0.178-5.805,0.777-6.402-0.299c-1.554-0.18-3.588-1.376-3.886-1.975
		c-0.301-0.598-1.138-1.794-2.214-1.138c-1.074,0.659-1.614,1.258-1.614,1.258s-1.018,1.076-1.316,1.137
		c-0.058,0.418-0.116,0.6-1.436,0.718c-1.316,0.117-10.289,0.299-10.289,0.299s-4.425-1.497-5.74-2.752
		c-0.898-1.377-0.719-2.153-0.599-2.393s0.718-0.779,0.718-0.779l0.479-2.929c0,0,0.72-6.58,1.497-8.432
		c0.777-2.155,1.076-3.292,1.076-3.292s2.512-2.45,3.886-0.357c0,0,2.633,4.188,6.102,3.35c3.469-0.838,7.178-3.589,7.178-3.589
		l0.12-2.034c0,0,0.359-1.912,2.153-0.118c1.791,1.793,9.327,7.653,13.753,9.567c4.426,1.916,6.818,2.273,7.896,2.393
		c1.076,0.12,5.861,0,5.861,0s2.871,1.557,2.99,2.752C64.158,37.702,64.877,39.796,61.943,42.31z"/>
</g>
</svg>
