<?xml version="1.0" encoding="utf-8"?>
<!-- Generator: Adobe Illustrator 16.0.0, SVG Export Plug-In . SVG Version: 6.00 Build 0)  -->
<!DOCTYPE svg PUBLIC "-//W3C//DTD SVG 1.1//EN" "http://www.w3.org/Graphics/SVG/1.1/DTD/svg11.dtd">
<svg version="1.1" id="Layer_1" xmlns="http://www.w3.org/2000/svg" xmlns:xlink="http://www.w3.org/1999/xlink" x="0px" y="0px"
	 width="70px" height="70px" viewBox="0 0 70 70" enable-background="new 0 0 70 70" xml:space="preserve">
<g>
	<polygon fill="#FFFFFF" points="22.39,50.749 22.39,50.74 22.389,50.74 	"/>
	<polygon fill="#FFFFFF" points="47.594,50.339 47.595,50.33 47.594,50.33 	"/>
	<path fill="#FFFFFF" d="M0,0v70h70V0H0z M56.703,46.902l-0.267,0.463c-0.314,0.555-0.901,0.889-1.531,0.889
		c-0.309,0-0.613-0.078-0.881-0.231l-4.377-2.521l0.243,3.479c0.034,0.471-0.118,0.931-0.428,1.282
		c-0.31,0.358-0.739,0.571-1.21,0.598l-0.659,0.051c-0.925,0-1.698-0.727-1.761-1.649l-0.436-6.194l-8.396-4.827v10.151l5.159,3.46
		c0.389,0.266,0.655,0.657,0.747,1.12c0.093,0.469-0.001,0.938-0.264,1.333l-0.304,0.444c-0.326,0.494-0.874,0.786-1.465,0.786
		c-0.351,0-0.691-0.103-0.982-0.3l-2.892-1.948v4.827c0,0.976-0.793,1.762-1.767,1.762h-0.538c-0.974,0-1.767-0.786-1.767-1.762
		V53.32l-2.842,1.914c-0.293,0.197-0.632,0.3-0.983,0.3c-0.591,0-1.139-0.292-1.466-0.786l-0.301-0.444
		c-0.263-0.395-0.358-0.864-0.265-1.333c0.093-0.463,0.358-0.854,0.749-1.12l5.108-3.426v-9.726l-8.365,4.838l-0.414,6.134
		c-0.065,0.933-0.838,1.649-1.762,1.649l-0.654-0.033c-0.473-0.035-0.904-0.249-1.214-0.606c-0.31-0.351-0.462-0.805-0.43-1.283
		l0.23-3.409l-4.341,2.505c-0.27,0.161-0.574,0.239-0.884,0.239c-0.629,0-1.216-0.342-1.53-0.881l-0.268-0.471
		c-0.238-0.41-0.3-0.889-0.178-1.341c0.124-0.452,0.417-0.837,0.826-1.067l4.369-2.529l-3.13-1.53
		c-0.424-0.205-0.742-0.563-0.895-1.018c-0.153-0.444-0.122-0.923,0.086-1.349l0.235-0.479c0.416-0.854,1.502-1.23,2.363-0.805
		l5.584,2.727l8.722-5.041l-8.901-5.11l-5.574,2.742c-0.246,0.121-0.508,0.189-0.78,0.189c-0.677,0-1.285-0.386-1.584-0.991
		l-0.238-0.479c-0.43-0.873-0.071-1.933,0.801-2.367l3.124-1.539l-4.179-2.401c-0.41-0.239-0.702-0.615-0.824-1.075
		c-0.122-0.453-0.06-0.932,0.175-1.333l0.267-0.471c0.469-0.812,1.595-1.128,2.413-0.649l4.149,2.385l-0.237-3.418
		c-0.033-0.471,0.121-0.923,0.432-1.283c0.309-0.357,0.739-0.572,1.207-0.597l0.538-0.044c0.003,0,0.006,0,0.009,0
		c1.041,0,1.81,0.728,1.873,1.641l0.431,6.144l8.549,4.914v-9.399l-5.11-3.436c-0.389-0.256-0.654-0.648-0.747-1.118
		c-0.093-0.463,0.002-0.933,0.265-1.325l0.303-0.452c0.521-0.778,1.664-1.001,2.448-0.479l2.842,1.914v-5.017
		c0-0.975,0.792-1.77,1.767-1.77h0.538c0.974,0,1.767,0.795,1.767,1.77v5.041l2.892-1.938c0.781-0.531,1.926-0.3,2.448,0.486
		l0.302,0.444c0.264,0.393,0.357,0.862,0.265,1.325c-0.092,0.47-0.358,0.862-0.749,1.128l-5.157,3.46v9.81l8.54-4.939l0.418-6.203
		c0.064-0.923,0.838-1.648,1.762-1.648l0.658,0.042c0.469,0.034,0.898,0.247,1.208,0.599c0.312,0.358,0.466,0.811,0.432,1.281
		l-0.233,3.479l4.175-2.419c0.817-0.471,1.945-0.163,2.41,0.649l0.271,0.471c0.486,0.846,0.197,1.922-0.646,2.408l-4.145,2.393
		l3.073,1.504c0.875,0.437,1.237,1.496,0.808,2.367l-0.236,0.488c-0.299,0.605-0.906,0.982-1.584,0.982
		c-0.271,0-0.531-0.06-0.777-0.181l-5.527-2.708l-8.173,4.725l8.021,4.606l5.521-2.718c0.846-0.419,1.94-0.051,2.361,0.804
		l0.24,0.486c0.209,0.419,0.24,0.897,0.09,1.343c-0.152,0.453-0.47,0.811-0.893,1.016l-3.069,1.514l4.347,2.504
		c0.41,0.23,0.702,0.615,0.825,1.075C57.001,46.023,56.938,46.492,56.703,46.902z"/>
</g>
</svg>
